<svg width="34" height="34" viewBox="0 0 34 34" fill="none" xmlns="http://www.w3.org/2000/svg">
<path d="M4.76777 1.23223C3.79146 0.255922 2.20854 0.255922 1.23223 1.23223C0.255922 2.20854 0.255922 3.79146 1.23223 4.76777L4.76777 1.23223ZM31.0223 33.5223C32.403 33.5223 33.5223 32.403 33.5223 31.0223V8.5223C33.5223 7.14159 32.403 6.0223 31.0223 6.0223C29.6416 6.0223 28.5223 7.14159 28.5223 8.5223V28.5223H8.5223C7.14159 28.5223 6.0223 29.6416 6.0223 31.0223C6.0223 32.403 7.14159 33.5223 8.5223 33.5223H31.0223ZM3 3L1.23223 4.76777L29.2545 32.7901L31.0223 31.0223L32.7901 29.2545L4.76777 1.23223L3 3Z" fill="black"/>
</svg>
