<svg width="1838" height="1690" viewBox="0 0 1838 1690" fill="none" xmlns="http://www.w3.org/2000/svg">
<g filter="url(#filter0_d_441_139)">
<rect x="63" y="63" width="1712" height="1564.12" rx="64" fill="white"/>
</g>
<rect x="230.787" y="572.051" width="494.831" height="329.887" rx="22" fill="#D9D9D9"/>
<path d="M372.98 1168.44C372.98 1146.9 390.441 1129.44 411.98 1129.44H904.781V1351.26H411.98C390.441 1351.26 372.98 1333.8 372.98 1312.26V1168.44Z" fill="#CACACA"/>
<path d="M933.219 1129.44H1426.02C1447.56 1129.44 1465.02 1146.9 1465.02 1168.44V1312.26C1465.02 1333.8 1447.56 1351.26 1426.02 1351.26H933.219V1129.44Z" fill="#CACACA"/>
<path d="M620.907 1397.75L617.182 1402.18C617.065 1402.34 616.915 1402.52 616.732 1402.7C616.549 1402.87 616.399 1402.99 616.282 1403.08V1403.13C616.399 1403.21 616.549 1403.36 616.732 1403.58C616.915 1403.78 617.065 1403.98 617.182 1404.18L621.307 1409.95H618.507L613.807 1402.98L618.107 1397.75H620.907ZM612.982 1392.45L613.007 1400.13C613.007 1400.66 612.982 1401.16 612.932 1401.63C612.899 1402.08 612.832 1402.55 612.732 1403.05C612.832 1403.52 612.899 1403.99 612.932 1404.48C612.965 1404.96 612.982 1405.42 612.982 1405.85V1409.95H610.582V1392.45H612.982ZM615.007 1402.23V1403.93H612.157V1402.23H615.007ZM637.747 1397.45C638.813 1397.45 639.622 1397.74 640.172 1398.3C640.738 1398.87 641.022 1399.7 641.022 1400.8V1409.95H638.622V1401.5C638.622 1400.8 638.48 1400.29 638.197 1399.98C637.93 1399.64 637.472 1399.48 636.822 1399.48C636.422 1399.48 636.038 1399.54 635.672 1399.68C635.305 1399.81 634.897 1400.02 634.447 1400.3C633.997 1400.57 633.455 1400.94 632.822 1401.4L632.697 1399.78C633.563 1398.99 634.405 1398.41 635.222 1398.03C636.038 1397.64 636.88 1397.45 637.747 1397.45ZM624.747 1397.75L624.922 1400.1L625.172 1400.45V1409.95H622.772V1397.75H624.747ZM629.822 1397.45C630.872 1397.45 631.672 1397.74 632.222 1398.3C632.772 1398.85 633.055 1399.69 633.072 1400.8V1409.95H630.747V1401.5C630.747 1400.77 630.597 1400.25 630.297 1399.95C629.997 1399.64 629.547 1399.48 628.947 1399.48C628.547 1399.48 628.163 1399.54 627.797 1399.68C627.43 1399.79 627.013 1399.99 626.547 1400.28C626.097 1400.54 625.547 1400.92 624.897 1401.4L624.747 1399.78C625.613 1398.99 626.455 1398.41 627.272 1398.03C628.088 1397.64 628.938 1397.45 629.822 1397.45ZM654.52 1392.7L644.695 1411.63H642.72L652.545 1392.7H654.52ZM663.931 1397.45C666.147 1397.45 667.256 1398.57 667.256 1400.8V1409.95H664.806V1401.5C664.806 1400.74 664.681 1400.21 664.431 1399.93C664.197 1399.63 663.781 1399.48 663.181 1399.48C662.464 1399.48 661.747 1399.64 661.031 1399.98C660.314 1400.29 659.456 1400.77 658.456 1401.4L658.331 1399.8C659.264 1399.07 660.197 1398.49 661.131 1398.08C662.081 1397.66 663.014 1397.45 663.931 1397.45ZM658.706 1392.45L658.731 1397.18C658.731 1397.74 658.706 1398.28 658.656 1398.78C658.622 1399.28 658.556 1399.72 658.456 1400.1L658.706 1400.45V1409.95H656.306V1392.45H658.706Z" fill="#4E4E4E" fill-opacity="0.74"/>
<path d="M1194.26 1397.75L1190.54 1402.18C1190.42 1402.34 1190.27 1402.52 1190.09 1402.7C1189.9 1402.87 1189.75 1402.99 1189.64 1403.08V1403.13C1189.75 1403.21 1189.9 1403.36 1190.09 1403.58C1190.27 1403.78 1190.42 1403.98 1190.54 1404.18L1194.66 1409.95H1191.86L1187.16 1402.98L1191.46 1397.75H1194.26ZM1186.34 1392.45L1186.36 1400.13C1186.36 1400.66 1186.34 1401.16 1186.29 1401.63C1186.25 1402.08 1186.19 1402.55 1186.09 1403.05C1186.19 1403.52 1186.25 1403.99 1186.29 1404.48C1186.32 1404.96 1186.34 1405.42 1186.34 1405.85V1409.95H1183.94V1392.45H1186.34ZM1188.36 1402.23V1403.93H1185.51V1402.23H1188.36ZM1211.1 1397.45C1212.17 1397.45 1212.98 1397.74 1213.53 1398.3C1214.09 1398.87 1214.38 1399.7 1214.38 1400.8V1409.95H1211.98V1401.5C1211.98 1400.8 1211.84 1400.29 1211.55 1399.98C1211.29 1399.64 1210.83 1399.48 1210.18 1399.48C1209.78 1399.48 1209.39 1399.54 1209.03 1399.68C1208.66 1399.81 1208.25 1400.02 1207.8 1400.3C1207.35 1400.57 1206.81 1400.94 1206.18 1401.4L1206.05 1399.78C1206.92 1398.99 1207.76 1398.41 1208.58 1398.03C1209.39 1397.64 1210.24 1397.45 1211.1 1397.45ZM1198.1 1397.75L1198.28 1400.1L1198.53 1400.45V1409.95H1196.13V1397.75H1198.1ZM1203.18 1397.45C1204.23 1397.45 1205.03 1397.74 1205.58 1398.3C1206.13 1398.85 1206.41 1399.69 1206.43 1400.8V1409.95H1204.1V1401.5C1204.1 1400.77 1203.95 1400.25 1203.65 1399.95C1203.35 1399.64 1202.9 1399.48 1202.3 1399.48C1201.9 1399.48 1201.52 1399.54 1201.15 1399.68C1200.79 1399.79 1200.37 1399.99 1199.9 1400.28C1199.45 1400.54 1198.9 1400.92 1198.25 1401.4L1198.1 1399.78C1198.97 1398.99 1199.81 1398.41 1200.63 1398.03C1201.44 1397.64 1202.29 1397.45 1203.18 1397.45Z" fill="#4E4E4E" fill-opacity="0.74"/>
<rect x="230.787" y="225.099" width="1376.43" height="258.791" rx="22" fill="#D9D9D9"/>
<path d="M882.03 836.529C866.24 836.529 853.355 834.068 843.374 829.146C833.393 824.223 828.403 817.868 828.403 810.081C828.403 806.555 829.483 803.285 831.643 800.273C833.803 797.261 836.82 794.653 840.693 792.449L854.77 805.453C853.429 806.04 851.977 806.702 850.413 807.436C848.848 808.171 847.619 809.053 846.726 810.081C848.662 812.432 853.131 814.489 860.132 816.252C867.134 818.015 874.433 818.897 882.03 818.897C889.627 818.897 896.964 818.015 904.039 816.252C911.115 814.489 915.621 812.432 917.558 810.081C916.515 808.906 915.175 807.951 913.536 807.216C911.897 806.481 910.333 805.82 908.844 805.232L922.697 792.008C926.868 794.359 930.071 797.041 932.305 800.053C934.54 803.065 935.657 806.408 935.657 810.081C935.657 817.868 930.667 824.223 920.686 829.146C910.706 834.068 897.82 836.529 882.03 836.529ZM882.254 788.041C897.001 777.315 908.099 766.552 915.547 755.753C922.995 744.953 926.719 734.117 926.719 723.244C926.719 708.257 921.878 696.943 912.195 689.303C902.513 681.662 892.458 677.842 882.03 677.842C871.603 677.842 861.548 681.662 851.865 689.303C842.182 696.943 837.341 708.257 837.341 723.244C837.341 733.088 840.991 743.337 848.29 753.99C855.589 764.642 866.91 775.993 882.254 788.041ZM882.03 810.081C861.026 794.8 845.348 779.96 834.995 765.561C824.642 751.161 819.465 737.056 819.465 723.244C819.465 712.812 821.365 703.665 825.163 695.804C828.962 687.943 833.84 681.368 839.799 676.079C845.757 670.789 852.461 666.822 859.909 664.177C867.357 661.532 874.731 660.21 882.03 660.21C889.329 660.21 896.703 661.532 904.151 664.177C911.599 666.822 918.303 670.789 924.261 676.079C930.22 681.368 935.098 687.943 938.897 695.804C942.696 703.665 944.595 712.812 944.595 723.244C944.595 737.056 939.418 751.161 929.065 765.561C918.712 779.96 903.034 794.8 882.03 810.081ZM882.03 739.553C886.946 739.553 891.154 737.827 894.655 734.374C898.155 730.921 899.906 726.77 899.906 721.922C899.906 717.073 898.155 712.922 894.655 709.469C891.154 706.016 886.946 704.29 882.03 704.29C877.114 704.29 872.906 706.016 869.405 709.469C865.905 712.922 864.154 717.073 864.154 721.922C864.154 726.77 865.905 730.921 869.405 734.374C872.906 737.827 877.114 739.553 882.03 739.553Z" fill="#1D1D1D"/>
<defs>
<filter id="filter0_d_441_139" x="0.900002" y="0.900002" width="1836.2" height="1688.32" filterUnits="userSpaceOnUse" color-interpolation-filters="sRGB">
<feFlood flood-opacity="0" result="BackgroundImageFix"/>
<feColorMatrix in="SourceAlpha" type="matrix" values="0 0 0 0 0 0 0 0 0 0 0 0 0 0 0 0 0 0 127 0" result="hardAlpha"/>
<feOffset/>
<feGaussianBlur stdDeviation="31.05"/>
<feComposite in2="hardAlpha" operator="out"/>
<feColorMatrix type="matrix" values="0 0 0 0 0 0 0 0 0 0 0 0 0 0 0 0 0 0 0.29 0"/>
<feBlend mode="normal" in2="BackgroundImageFix" result="effect1_dropShadow_441_139"/>
<feBlend mode="normal" in="SourceGraphic" in2="effect1_dropShadow_441_139" result="shape"/>
</filter>
</defs>
</svg>
