<svg width="38" height="46" viewBox="0 0 38 46" fill="none" xmlns="http://www.w3.org/2000/svg">
<path d="M21.5 3C21.5 1.61929 20.3807 0.5 19 0.5C17.6193 0.5 16.5 1.61929 16.5 3H21.5ZM17.2322 44.7678C18.2085 45.7441 19.7915 45.7441 20.7678 44.7678L36.6777 28.8579C37.654 27.8816 37.654 26.2986 36.6777 25.3223C35.7014 24.346 34.1184 24.346 33.1421 25.3223L19 39.4645L4.85786 25.3223C3.88155 24.346 2.29864 24.346 1.32233 25.3223C0.34602 26.2986 0.34602 27.8816 1.32233 28.8579L17.2322 44.7678ZM19 3H16.5V43H19H21.5V3H19Z" fill="black"/>
</svg>
